<svg version="1.1" id="Camada_1" xmlns="http://www.w3.org/2000/svg" xmlns:xlink="http://www.w3.org/1999/xlink" x="0px" y="0px"
	 viewBox="0 0 599.1 632.1" style="enable-background:new 0 0 599.1 632.1;" xml:space="preserve">
<style type="text/css">
	.st0{fill-rule:evenodd;clip-rule:evenodd;fill:#E30613;}
	.st1{fill-rule:evenodd;clip-rule:evenodd;fill:#000000;}
	.st2{fill-rule:evenodd;clip-rule:evenodd;fill:#FFFFFF;}
	.st3{fill-rule:evenodd;clip-rule:evenodd;fill:#FFED00;}
</style>
<path class="st0" d="M289.4,90.4c4.2-4.2,15.2-4.3,19.1,0.3v-0.2l138.1,154.6h-38.9l0,0h-10.3l-68.2,120h-60.7l-68.2-120H177h-26
	L289.4,90.4z"/>
<path class="st1" d="M589.8,394.1V65.8h-64.1l0,0c-16.2-0.1-25.5,5.1-26.1,19.2v104.3c-0.6,5.6-2.6,9.6-5.8,10.4
	c-2.8,0.8-5,0.9-8,0.1c-1.5-0.3-4.7-2.9-7.1-5.7l-75.4-114c-7-9.2-18.3-14.4-34-14.3l0,0h-54.5H283h-54.6l0,0
	c-15.3-0.1-26.4,4.8-33.5,13.6l-76.8,116c-2.2,2.3-4.7,4.2-6,4.5c-2.9,0.8-5.1,0.7-7.9-0.1c-3.2-0.8-5.2-4.9-5.8-10.5V83.1
	c-1.4-12.7-10.5-17.4-26-17.3l0,0H8.2v328.3h64.2l0,0c15.4,0.1,24.6-4.6,25.9-17.3V261c0.6-5.5,2.6-9.5,5.8-10.3
	c2.8-0.8,5-0.9,7.9-0.1c0.9,0.2,2.3,1.1,3.8,2.4l71.6,125c6.5,9.8,17.5,15.6,32.9,16h70.9h15.2h69.3c16.2-0.1,27.7-5.9,34.5-16
	l71.2-124.5c1.7-1.6,3.4-2.7,4.4-3c2.9-0.8,5.1-0.7,8,0.1c3.2,0.8,5.2,4.8,5.8,10.3v115.4c1.2,12.9,10.4,17.7,26,17.6l0,0h64.2
	V394.1z M289.4,90.4c4.2-4.2,15.2-4.3,19.1,0.3v-0.2l138.1,154.6h-38.9l0,0h-10.3l-68.2,120h-60.7l-68.2-120H177h-26L289.4,90.4z"/>
<path class="st0" d="M21.1,8.7h555.8h12.9v13.7l0,0v0.3l0,0c-0.1,7.4-5.9,13.5-12.9,13.5H21.1c-7,0-12.7-6-12.9-13.5l0,0v-0.3l0,0
	V8.7H21.1z"/>
<path class="st0" d="M21.1,422.2h555.8c7.1,0,12.9,6.1,12.9,13.7l0,0c0,0,0,0,0,0.1v13.7h-12.9H21.1H8.2V436l0,0c0,0,0,0,0-0.1l0,0
	C8.2,428.3,14,422.2,21.1,422.2L21.1,422.2z"/>
<rect x="7.1" y="564.1" class="st2" width="583.8" height="7.1"/>
<path class="st0" d="M7.1,475.7h568.6c9.7,0.3,15.1,4,15.1,13.2v75.2H7.1V475.7z"/>
<path class="st3" d="M7.1,623.5h566.8l0,0c0.2,0,0.3,0,0.5,0c10.5,0,16.4-3.7,16.4-13.3l0.1,0.2v-39.2H189.6c0-0.1-0.1-0.1-0.1-0.2
	c-1-1.4-1.9-2.4-2.9-2.9s-2.3-0.8-3.8-0.8c-2.6,0-4.8,0.9-6.7,2.6c-0.4,0.4-0.8,0.8-1.2,1.3H7.1V623.5z"/>
<path class="st2" d="M40.6,489.6h20.5v20.1l18.1-20.1H103l-22.6,23.5l25.2,38.8H81l-15.1-24.8l-4.8,5v19.8H40.6V489.6L40.6,489.6z
	 M131.8,504.1v12.4h8.6c3.6,0,6-0.5,7.3-1.6s1.9-2.6,1.9-4.4c0-2-0.8-3.6-2.3-4.7s-3.4-1.6-5.7-1.6h-9.8V504.1z M111.4,489.6h30.2
	c7.4,0,13.1,0.8,17,2.4s6.6,3.6,7.9,6.2c1.3,2.6,2,5.6,2,9.1c0,4.2-1,7.6-2.9,10.2s-4.5,4.3-7.5,5.1c2.9,1.2,4.9,2.1,6.2,2.9
	c1.2,0.8,2.2,2.2,3.1,4.4c0.8,2.1,1.2,5.2,1.2,9.3v4.8c0,2.2,0.2,3.8,0.5,4.7s0.9,1.4,1.7,1.4v1.8h-20.6c-0.5-1.7-0.8-3.7-0.9-6
	c-0.1-2.3-0.2-4.6-0.3-6.7c-0.1-2.2-0.4-3.9-0.9-5.3c-0.5-1.4-1.5-2.3-2.9-2.7c-2.1-0.7-5.6-1-10.3-1h-3V552h-20.4v-62.4H111.4z
	 M179.9,489.6h50.8v14.5h-30.3v9H226v14.5h-25.6v9.8H232v14.5h-52v-62.3H179.9z M240.7,489.6h29.8c4.5,0,8.4,0.5,11.8,1.5
	s6.1,2.4,8.3,4.2c2.2,1.8,3.8,4.1,4.9,6.8c1.1,2.7,1.6,5.9,1.6,9.4c0,2.9-0.5,5.6-1.4,8c-0.9,2.5-2.3,4.7-4.3,6.6
	c-2,1.9-4.6,3.5-7.9,4.6s-7.4,1.7-12.1,1.7h-10.5v19.5h-20.4v-62.3H240.7z M261.1,504.1v13.8h8.8c2.2,0,4.1-0.6,5.6-1.7
	c1.5-1.1,2.2-3,2.2-5.6c0-4.4-3.5-6.6-10.6-6.6h-6V504.1z M304.9,489.6h20.5v62.3h-20.5V489.6L304.9,489.6z M370.4,507.6
	c-0.5-3.6-3.3-5.4-8.4-5.4c-4,0-6.1,1.1-6.3,3.4c0,1.1,0.4,2,1.3,2.8s2,1.5,3.5,2c1.4,0.5,3,1,4.8,1.4c1.8,0.4,3.4,0.8,5,1.2
	c4.8,1.2,8.7,2.6,11.8,4.1c3.1,1.6,5.4,3.6,7,6s2.4,5.4,2.4,9c0,5.1-1.4,9.2-4.1,12.4s-6.3,5.5-10.6,6.9c-4.4,1.4-9.1,2.1-14.2,2.1
	c-5,0-9.6-0.9-13.7-2.6c-4.1-1.7-7.5-4.2-10-7.4s-3.9-6.9-4.1-11h19.7c0.4,2.4,1.6,4.2,3.5,5.2s3.9,1.5,6.1,1.5
	c5-0.2,7.7-1.7,7.9-4.2c0-1.8-1-3.2-2.9-4.1c-1.9-0.9-5-1.9-9.3-3c-3.9-1-7.1-1.9-9.8-2.8c-2.6-0.9-5-2.1-7.1-3.6s-3.8-3.4-5-5.8
	c-1.2-2.4-1.8-5.3-1.8-8.8c0.1-3.6,1.2-6.8,3.3-9.7c2.1-2.9,5.2-5.1,9.3-6.8c4.1-1.6,8.9-2.4,14.5-2.4c3.3,0,6.4,0.3,9.2,1
	c2.9,0.7,5.6,1.8,8,3.3s4.5,3.6,6.1,6.1c1.6,2.6,2.7,5.6,3.2,9.3h-19.3V507.6z M439.4,513.4c-0.3-2.8-1.1-5-2.4-6.5s-2.7-2.5-4.2-3
	s-3-0.7-4.3-0.7c-4.1,0-7.1,1.7-8.9,5.2c-1.8,3.4-2.7,7.8-2.7,12.9c0,11.3,4,17,12.1,17.2c6.1,0,9.6-3.5,10.6-10.6h19.6
	c-0.5,4.9-2,9.4-4.5,13.3c-2.5,3.9-5.8,7-10.1,9.2c-4.3,2.2-9.3,3.3-14.9,3.3c-5,0-9.6-0.7-13.7-2.2s-7.6-3.6-10.5-6.5
	c-2.9-2.8-5.1-6.2-6.7-10.2s-2.3-8.5-2.4-13.5c0-5.7,0.9-10.7,2.8-15c1.8-4.3,4.3-7.8,7.4-10.4c3.1-2.7,6.4-4.7,10.1-5.9
	c3.7-1.3,7.4-1.9,11.1-1.9c11,0.2,18.7,2.8,23.2,7.6c4.4,4.9,7.1,10.8,8,17.9h-19.6V513.4z M467.5,489.6H488v21.1h19.4v-21.1h20.5
	v62.3h-20.5v-24.1H488v24.1h-20.5V489.6L467.5,489.6z M540.1,489.6h20.5v62.3h-20.5V489.6z"/>
<path class="st1" d="M61,610.9H42c0.2-0.3,0.3-0.8,0.3-1.3v-24.3c0-0.6-0.1-1-0.3-1.3h10.8c-0.2,0.3-0.3,0.8-0.3,1.3v21.5h6.3
	c1,0,1.7-0.1,2.1-0.3v4.4H61z M76.3,604.1l-2.1,5.5c-0.2,0.5-0.3,0.8-0.3,1c0,0.1,0,0.2,0.1,0.3h-5.5c0.3-0.3,0.6-0.8,0.9-1.3
	l9.5-24.3c0.2-0.5,0.3-0.8,0.3-1c0-0.1,0-0.2,0-0.3h8.6c0,0.1,0,0.2,0,0.2c0,0.2,0.1,0.6,0.3,1.1l9.7,24.3c0.2,0.6,0.6,1,1,1.3H87
	c0-0.2,0-0.3,0-0.3c0-0.3-0.1-0.6-0.2-1l-2-5.5H76.3L76.3,604.1z M77.9,600h5.4l-2.6-7.8L77.9,600L77.9,600z M117.4,599.1v10.4
	c0,0.6,0.1,1,0.3,1.3h-10.9c0.2-0.3,0.3-0.7,0.3-1.3v-24.3c0-0.5-0.1-1-0.3-1.3H122c2.8,0,5,0.6,6.6,1.9c1.7,1.3,2.5,3.2,2.5,5.6
	c0,1.6-0.4,3-1.1,4.1c-0.7,1.1-1.9,2-3.6,2.9l5.6,11.1c0.3,0.6,0.6,1,1,1.3h-11.8c0-0.1,0-0.2,0-0.2c0-0.2-0.1-0.6-0.3-1.1
	L117.4,599.1L117.4,599.1z M117.4,596.4h0.7c1.8,0,2.8-1.4,2.8-4.2c0-3-0.8-4.6-2.5-4.6h-0.9L117.4,596.4L117.4,596.4z"/>
<path class="st1" d="M61,610.9H42c0.2-0.3,0.3-0.8,0.3-1.3v-24.3c0-0.6-0.1-1-0.3-1.3h10.8c-0.2,0.3-0.3,0.8-0.3,1.3v21.5h6.3
	c1,0,1.7-0.1,2.1-0.3v4.4H61z M76.3,604.1l-2.1,5.5c-0.2,0.5-0.3,0.8-0.3,1c0,0.1,0,0.2,0.1,0.3h-5.5c0.3-0.3,0.6-0.8,0.9-1.3
	l9.5-24.3c0.2-0.5,0.3-0.8,0.3-1c0-0.1,0-0.2,0-0.3h8.6c0,0.1,0,0.2,0,0.2c0,0.2,0.1,0.6,0.3,1.1l9.7,24.3c0.2,0.6,0.6,1,1,1.3H87
	c0-0.2,0-0.3,0-0.3c0-0.3-0.1-0.6-0.2-1l-2-5.5H76.3L76.3,604.1z M77.9,600h5.4l-2.6-7.8L77.9,600L77.9,600z M117.4,599.1v10.4
	c0,0.6,0.1,1,0.3,1.3h-10.9c0.2-0.3,0.3-0.7,0.3-1.3v-24.3c0-0.5-0.1-1-0.3-1.3H122c2.8,0,5,0.6,6.6,1.9c1.7,1.3,2.5,3.2,2.5,5.6
	c0,1.6-0.4,3-1.1,4.1c-0.7,1.1-1.9,2-3.6,2.9l5.6,11.1c0.3,0.6,0.6,1,1,1.3h-11.8c0-0.1,0-0.2,0-0.2c0-0.2-0.1-0.6-0.3-1.1
	L117.4,599.1L117.4,599.1z M117.4,596.4h0.7c1.8,0,2.8-1.4,2.8-4.2c0-3-0.8-4.6-2.5-4.6h-0.9L117.4,596.4L117.4,596.4z"/>
<path class="st1" d="M266.6,585.6v5.8c-2.8-2-5.4-3-7.6-3s-3.9,0.9-5.1,2.6c-1.2,1.7-1.9,4.1-1.9,7.1c0,1.8,0.2,3.3,0.5,4.5
	c0.4,1.2,0.9,2.3,1.7,3.2c0.6,0.7,1.4,1.2,2.3,1.6c0.9,0.4,1.8,0.6,2.7,0.6c2.1,0,4.5-1,7.4-2.9v5.6c-2.9,1-6.1,1.5-9.4,1.5
	c-5.4,0-9.4-1.2-12-3.6c-2.6-2.4-3.9-5.9-3.9-10.6c0-3.2,0.6-5.7,1.8-7.6c0.8-1.3,2-2.4,3.4-3.4s3.1-1.7,4.9-2.1
	c1.8-0.5,4.1-0.7,6.6-0.7C261.2,584.2,264,584.6,266.6,585.6L266.6,585.6z M288,584.2c4.5,0,8.1,0.9,10.9,2.7
	c3.5,2.3,5.3,6.1,5.3,11.2c0,4.8-1.5,8.4-4.6,10.7c-2.8,2.2-6.8,3.2-12,3.2c-3.5,0-6.3-0.5-8.4-1.4c-2.7-1.2-4.7-3.1-5.9-5.6
	c-1-2-1.5-4.4-1.5-7.2c0-1.5,0.2-2.9,0.6-4.4s1-2.7,1.7-3.7C276.7,586.1,281.3,584.2,288,584.2L288,584.2z M288,588
	c-1.9,0-3.3,0.8-4.1,2.4c-0.9,1.6-1.3,4.1-1.3,7.6s0.4,6,1.2,7.7c0.8,1.7,2.2,2.6,4.2,2.6c1.9,0,3.3-0.8,4.1-2.4
	c0.9-1.6,1.3-4.1,1.3-7.6s-0.4-6.1-1.2-7.7C291.4,588.9,290,588,288,588L288,588z M315.8,595.6v14.6c0,0.6,0.1,1,0.3,1.3H311
	c0.2-0.3,0.3-0.8,0.3-1.3V586c0-0.6-0.1-1.1-0.3-1.3h8.8c0.1,0.3,0.3,0.8,0.8,1.4l12.8,14.9v-15c0-0.6-0.1-1-0.3-1.4h5.2
	c-0.2,0.2-0.2,0.3-0.3,0.5c0,0.1,0,0.4,0,0.9v24.3c0,0.4,0.1,0.9,0.3,1.4h-8.9c-0.1-0.3-0.4-0.8-0.9-1.4L315.8,595.6L315.8,595.6z
	 M344.4,609.9l1.5-5.4c1.1,0.8,1.9,1.3,2.4,1.6c1.8,1.1,3.5,1.6,5.3,1.6c1.1,0,2-0.2,2.6-0.7c0.7-0.5,1.1-1.2,1.1-2
	c0-0.9-0.5-1.6-1.4-2.1c-0.4-0.2-1.8-0.8-4.3-1.7c-2.7-1-4.6-2.1-5.6-3.4c-1-1.3-1.5-2.9-1.5-4.6c0-1.8,0.5-3.4,1.6-4.9
	c2-2.8,5.6-4.2,10.6-4.2c2.9,0,5.8,0.6,8.6,1.7l-1.3,5.1c-2.8-1.9-5.1-2.8-7-2.8c-0.9,0-1.6,0.2-2.1,0.7c-0.6,0.4-0.8,1-0.8,1.7
	s0.3,1.3,0.9,1.6s2.3,1,5.1,2c2.9,1,4.8,2.2,5.8,3.7c0.8,1.2,1.2,2.6,1.2,4.3c0,2-0.5,3.9-1.6,5.5c-2,3.1-5.6,4.6-11,4.6
	c-1.8,0-3.5-0.2-5-0.5C348,611.3,346.3,610.7,344.4,609.9L344.4,609.9z M370.9,584.7h24.3v4.6c-0.5-0.1-1.1-0.2-1.6-0.2h-5.4v21.2
	c0,0.6,0.1,1,0.3,1.3h-10.9c0.2-0.3,0.3-0.7,0.3-1.3v-21.2h-5c-0.6,0-1.3,0.1-2,0.2L370.9,584.7L370.9,584.7z M411,599.9v10.4
	c0,0.6,0.1,1,0.3,1.3h-10.9c0.2-0.3,0.3-0.7,0.3-1.3V586c0-0.5-0.1-1-0.3-1.3h15.2c2.8,0,5,0.6,6.6,1.9c1.7,1.3,2.5,3.2,2.5,5.6
	c0,1.6-0.4,3-1.1,4.1s-1.9,2-3.6,2.9l5.6,11.1c0.3,0.6,0.6,1,1,1.3h-11.8c0-0.1,0-0.2,0-0.2c0-0.2-0.1-0.6-0.3-1.1L411,599.9
	L411,599.9z M411,597.1h0.7c1.8,0,2.8-1.4,2.8-4.2c0-3-0.8-4.6-2.5-4.6h-1V597.1L411,597.1z M459.1,584.7c-0.2,0.4-0.3,0.8-0.3,1.3
	v16c0,2.6-0.8,4.7-2.3,6.4c-2.3,2.5-6.1,3.8-11.3,3.8c-4.1,0-7.3-0.9-9.7-2.6c-1.2-0.9-2.1-2-2.6-3.3s-0.8-2.9-0.8-4.7V586
	c0-0.6-0.1-1-0.3-1.3h10.9c-0.2,0.4-0.3,0.8-0.3,1.3v16.2c0,1.8,0.5,3.2,1.4,4.1c1,1,2.5,1.5,4.4,1.5c1.4,0,2.8-0.4,3.9-1.1
	c0.8-0.5,1.4-1.1,1.7-1.9c0.4-0.8,0.5-1.8,0.5-3V586c0-0.6-0.1-1.1-0.3-1.3H459.1L459.1,584.7z M490.7,585.6v5.8c-2.8-2-5.4-3-7.6-3
	s-3.9,0.9-5.1,2.6c-1.2,1.7-1.9,4.1-1.9,7.1c0,1.8,0.2,3.3,0.5,4.5c0.4,1.2,0.9,2.3,1.7,3.2c0.6,0.7,1.4,1.2,2.2,1.6
	c0.9,0.4,1.8,0.6,2.7,0.6c2.1,0,4.5-1,7.4-2.9v5.6c-2.9,1-6.1,1.5-9.4,1.5c-5.4,0-9.4-1.2-12-3.6c-2.6-2.4-3.9-5.9-3.9-10.6
	c0-3.2,0.6-5.7,1.8-7.6c0.8-1.3,2-2.4,3.4-3.4s3.1-1.7,4.9-2.1c1.8-0.5,4.1-0.7,6.6-0.7C485.3,584.2,488.1,584.6,490.7,585.6
	L490.7,585.6z M475.6,619.7l1.8-6h6.3l-3.9,6H475.6L475.6,619.7z M501.7,604.8l-2.1,5.5c-0.2,0.5-0.3,0.8-0.3,1c0,0.1,0,0.2,0.1,0.3
	h-5.5c0.3-0.3,0.6-0.8,0.9-1.3l9.5-24.3c0.2-0.5,0.3-0.8,0.3-1c0-0.1,0-0.2,0-0.3h8.6c0,0.1,0,0.2,0,0.2c0,0.2,0.1,0.6,0.3,1.1
	l9.7,24.3c0.3,0.6,0.6,1,1,1.3h-11.7c0-0.2,0-0.3,0-0.3c0-0.3-0.1-0.6-0.2-1l-2-5.5H501.7L501.7,604.8z M503.3,600.7h5.4l-2.6-7.8
	L503.3,600.7L503.3,600.7z M500.7,581.6v-4.4c1.9-0.6,3.4-0.8,4.5-0.8s2.6,0.2,4.4,0.6c1.8,0.4,3.1,0.6,3.8,0.6
	c1.1,0,2.1-0.2,3.2-0.7v4.3c-1.4,0.5-2.6,0.7-3.6,0.7c-0.5,0-1,0-1.4-0.1s-1.5-0.3-3.2-0.7c-1.4-0.3-2.6-0.4-3.7-0.4
	C503.5,580.7,502.1,581,500.7,581.6L500.7,581.6z M542.9,584.2c4.5,0,8.1,0.9,10.9,2.7c3.5,2.3,5.3,6.1,5.3,11.2
	c0,4.8-1.5,8.4-4.6,10.7c-2.8,2.2-6.8,3.2-12,3.2c-3.5,0-6.3-0.5-8.4-1.4c-2.7-1.2-4.7-3.1-5.9-5.6c-1-2-1.5-4.4-1.5-7.2
	c0-1.5,0.2-2.9,0.6-4.4c0.4-1.5,1-2.7,1.7-3.7C531.6,586.1,536.3,584.2,542.9,584.2L542.9,584.2z M542.9,588c-1.9,0-3.3,0.8-4.1,2.4
	c-0.9,1.6-1.3,4.1-1.3,7.6s0.4,6,1.2,7.7s2.2,2.6,4.2,2.6c1.9,0,3.3-0.8,4.1-2.4c0.9-1.6,1.3-4.1,1.3-7.6s-0.4-6.1-1.2-7.7
	C546.3,588.9,544.9,588,542.9,588z"/>
<path class="st1" d="M266.6,585.6v5.8c-2.8-2-5.4-3-7.6-3s-3.9,0.9-5.1,2.6c-1.2,1.7-1.9,4.1-1.9,7.1c0,1.8,0.2,3.3,0.5,4.5
	c0.4,1.2,0.9,2.3,1.7,3.2c0.6,0.7,1.4,1.2,2.3,1.6c0.9,0.4,1.8,0.6,2.7,0.6c2.1,0,4.5-1,7.4-2.9v5.6c-2.9,1-6.1,1.5-9.4,1.5
	c-5.4,0-9.4-1.2-12-3.6c-2.6-2.4-3.9-5.9-3.9-10.6c0-3.2,0.6-5.7,1.8-7.6c0.8-1.3,2-2.4,3.4-3.4s3.1-1.7,4.9-2.1
	c1.8-0.5,4.1-0.7,6.6-0.7C261.2,584.2,264,584.6,266.6,585.6L266.6,585.6z M288,584.2c4.5,0,8.1,0.9,10.9,2.7
	c3.5,2.3,5.3,6.1,5.3,11.2c0,4.8-1.5,8.4-4.6,10.7c-2.8,2.2-6.8,3.2-12,3.2c-3.5,0-6.3-0.5-8.4-1.4c-2.7-1.2-4.7-3.1-5.9-5.6
	c-1-2-1.5-4.4-1.5-7.2c0-1.5,0.2-2.9,0.6-4.4s1-2.7,1.7-3.7C276.7,586.1,281.3,584.2,288,584.2L288,584.2z M288,588
	c-1.9,0-3.3,0.8-4.1,2.4c-0.9,1.6-1.3,4.1-1.3,7.6s0.4,6,1.2,7.7c0.8,1.7,2.2,2.6,4.2,2.6c1.9,0,3.3-0.8,4.1-2.4
	c0.9-1.6,1.3-4.1,1.3-7.6s-0.4-6.1-1.2-7.7C291.4,588.9,290,588,288,588L288,588z M315.8,595.6v14.6c0,0.6,0.1,1,0.3,1.3H311
	c0.2-0.3,0.3-0.8,0.3-1.3V586c0-0.6-0.1-1.1-0.3-1.3h8.8c0.1,0.3,0.3,0.8,0.8,1.4l12.8,14.9v-15c0-0.6-0.1-1-0.3-1.4h5.2
	c-0.2,0.2-0.2,0.3-0.3,0.5c0,0.1,0,0.4,0,0.9v24.3c0,0.4,0.1,0.9,0.3,1.4h-8.9c-0.1-0.3-0.4-0.8-0.9-1.4L315.8,595.6L315.8,595.6z
	 M344.4,609.9l1.5-5.4c1.1,0.8,1.9,1.3,2.4,1.6c1.8,1.1,3.5,1.6,5.3,1.6c1.1,0,2-0.2,2.6-0.7c0.7-0.5,1.1-1.2,1.1-2
	c0-0.9-0.5-1.6-1.4-2.1c-0.4-0.2-1.8-0.8-4.3-1.7c-2.7-1-4.6-2.1-5.6-3.4c-1-1.3-1.5-2.9-1.5-4.6c0-1.8,0.5-3.4,1.6-4.9
	c2-2.8,5.6-4.2,10.6-4.2c2.9,0,5.8,0.6,8.6,1.7l-1.3,5.1c-2.8-1.9-5.1-2.8-7-2.8c-0.9,0-1.6,0.2-2.1,0.7c-0.6,0.4-0.8,1-0.8,1.7
	s0.3,1.3,0.9,1.6s2.3,1,5.1,2c2.9,1,4.8,2.2,5.8,3.7c0.8,1.2,1.2,2.6,1.2,4.3c0,2-0.5,3.9-1.6,5.5c-2,3.1-5.6,4.6-11,4.6
	c-1.8,0-3.5-0.2-5-0.5C348,611.3,346.3,610.7,344.4,609.9L344.4,609.9z M370.9,584.7h24.3v4.6c-0.5-0.1-1.1-0.2-1.6-0.2h-5.4v21.2
	c0,0.6,0.1,1,0.3,1.3h-10.9c0.2-0.3,0.3-0.7,0.3-1.3v-21.2h-5c-0.6,0-1.3,0.1-2,0.2L370.9,584.7L370.9,584.7z M411,599.9v10.4
	c0,0.6,0.1,1,0.3,1.3h-10.9c0.2-0.3,0.3-0.7,0.3-1.3V586c0-0.5-0.1-1-0.3-1.3h15.2c2.8,0,5,0.6,6.6,1.9c1.7,1.3,2.5,3.2,2.5,5.6
	c0,1.6-0.4,3-1.1,4.1s-1.9,2-3.6,2.9l5.6,11.1c0.3,0.6,0.6,1,1,1.3h-11.8c0-0.1,0-0.2,0-0.2c0-0.2-0.1-0.6-0.3-1.1L411,599.9
	L411,599.9z M411,597.1h0.7c1.8,0,2.8-1.4,2.8-4.2c0-3-0.8-4.6-2.5-4.6h-1V597.1L411,597.1z M459.1,584.7c-0.2,0.4-0.3,0.8-0.3,1.3
	v16c0,2.6-0.8,4.7-2.3,6.4c-2.3,2.5-6.1,3.8-11.3,3.8c-4.1,0-7.3-0.9-9.7-2.6c-1.2-0.9-2.1-2-2.6-3.3s-0.8-2.9-0.8-4.7V586
	c0-0.6-0.1-1-0.3-1.3h10.9c-0.2,0.4-0.3,0.8-0.3,1.3v16.2c0,1.8,0.5,3.2,1.4,4.1c1,1,2.5,1.5,4.4,1.5c1.4,0,2.8-0.4,3.9-1.1
	c0.8-0.5,1.4-1.1,1.7-1.9c0.4-0.8,0.5-1.8,0.5-3V586c0-0.6-0.1-1.1-0.3-1.3H459.1L459.1,584.7z M490.7,585.6v5.8c-2.8-2-5.4-3-7.6-3
	s-3.9,0.9-5.1,2.6c-1.2,1.7-1.9,4.1-1.9,7.1c0,1.8,0.2,3.3,0.5,4.5c0.4,1.2,0.9,2.3,1.7,3.2c0.6,0.7,1.4,1.2,2.2,1.6
	c0.9,0.4,1.8,0.6,2.7,0.6c2.1,0,4.5-1,7.4-2.9v5.6c-2.9,1-6.1,1.5-9.4,1.5c-5.4,0-9.4-1.2-12-3.6c-2.6-2.4-3.9-5.9-3.9-10.6
	c0-3.2,0.6-5.7,1.8-7.6c0.8-1.3,2-2.4,3.4-3.4s3.1-1.7,4.9-2.1c1.8-0.5,4.1-0.7,6.6-0.7C485.3,584.2,488.1,584.6,490.7,585.6
	L490.7,585.6z M475.6,619.7l1.8-6h6.3l-3.9,6H475.6L475.6,619.7z M501.7,604.8l-2.1,5.5c-0.2,0.5-0.3,0.8-0.3,1c0,0.1,0,0.2,0.1,0.3
	h-5.5c0.3-0.3,0.6-0.8,0.9-1.3l9.5-24.3c0.2-0.5,0.3-0.8,0.3-1c0-0.1,0-0.2,0-0.3h8.6c0,0.1,0,0.2,0,0.2c0,0.2,0.1,0.6,0.3,1.1
	l9.7,24.3c0.3,0.6,0.6,1,1,1.3h-11.7c0-0.2,0-0.3,0-0.3c0-0.3-0.1-0.6-0.2-1l-2-5.5H501.7L501.7,604.8z M503.3,600.7h5.4l-2.6-7.8
	L503.3,600.7L503.3,600.7z M500.7,581.6v-4.4c1.9-0.6,3.4-0.8,4.5-0.8s2.6,0.2,4.4,0.6c1.8,0.4,3.1,0.6,3.8,0.6
	c1.1,0,2.1-0.2,3.2-0.7v4.3c-1.4,0.5-2.6,0.7-3.6,0.7c-0.5,0-1,0-1.4-0.1s-1.5-0.3-3.2-0.7c-1.4-0.3-2.6-0.4-3.7-0.4
	C503.5,580.7,502.1,581,500.7,581.6L500.7,581.6z M542.9,584.2c4.5,0,8.1,0.9,10.9,2.7c3.5,2.3,5.3,6.1,5.3,11.2
	c0,4.8-1.5,8.4-4.6,10.7c-2.8,2.2-6.8,3.2-12,3.2c-3.5,0-6.3-0.5-8.4-1.4c-2.7-1.2-4.7-3.1-5.9-5.6c-1-2-1.5-4.4-1.5-7.2
	c0-1.5,0.2-2.9,0.6-4.4c0.4-1.5,1-2.7,1.7-3.7C531.6,586.1,536.3,584.2,542.9,584.2L542.9,584.2z M542.9,588c-1.9,0-3.3,0.8-4.1,2.4
	c-0.9,1.6-1.3,4.1-1.3,7.6s0.4,6,1.2,7.7s2.2,2.6,4.2,2.6c1.9,0,3.3-0.8,4.1-2.4c0.9-1.6,1.3-4.1,1.3-7.6s-0.4-6.1-1.2-7.7
	C546.3,588.9,544.9,588,542.9,588z"/>
<path class="st0" d="M165.8,585c-1.1-1.2-1.9-2.4-2.5-3.6c-0.5-1.3-0.8-2.6-0.8-4c0-4.1,2-7.6,6.1-10.4c4.1-2.8,9.2-4.2,15.4-4.2
	c4.8,0,8.6,0.7,11.4,2.2c2.8,1.5,4.3,3.4,4.3,5.8c0,1.3-0.4,2.4-1.3,3.2c-0.9,0.8-2,1.2-3.4,1.2c-1.8,0-3.5-1.1-5-3.4
	c-0.2-0.3-0.4-0.6-0.5-0.7c-1-1.4-1.9-2.4-2.9-2.9s-2.3-0.8-3.8-0.8c-2.6,0-4.8,0.9-6.7,2.6c-1.9,1.7-2.8,3.8-2.8,6.2
	c0,1.7,0.5,3.1,1.6,4.3s2.7,2.1,4.9,2.8l-1,4.4c-3.7,0.2-6.7,1.5-8.9,3.9c-2.3,2.4-3.4,5.6-3.4,9.4c0,5,1.7,8.9,5,11.9
	c3.3,2.9,7.8,4.4,13.5,4.4c6.8,0,12.3-1.5,16.4-4.4c4.1-2.9,6.2-6.8,6.2-11.6c0-3.2-1.2-5.8-3.7-7.9c-2.5-2-5.5-3.1-9.3-3.1
	c-1.3,0-2.4,0.3-3.2,0.9c-0.8,0.6-1.2,1.3-1.2,2.2c0,0.8,0.7,1.7,2,2.6c0.2,0.1,0.3,0.2,0.3,0.2c1.6,1.1,2.6,2,3.1,2.6
	c0.4,0.6,0.6,1.4,0.6,2.3c0,1.4-0.4,2.5-1.2,3.3s-2,1.2-3.5,1.2c-2,0-3.6-0.9-4.9-2.7c-1.3-1.8-2-4.1-2-6.8c0-3.8,1.2-7,3.5-9.5
	c2.4-2.5,5.4-3.7,9-3.7c3,0,6.9,1.2,11.8,3.5c1.1,0.5,1.8,0.8,2.4,1.1c1.8,0.8,3.3,1.4,4.4,1.8c1.1,0.3,2.2,0.5,3,0.5
	c1,0,1.9-0.3,2.5-1c0.7-0.7,1-1.5,1-2.5c0-1.3-0.9-2.3-2.8-2.9c-0.3-0.1-0.5-0.2-0.7-0.3c-1-0.4-1.8-0.8-2.3-1.4
	c-0.5-0.5-0.7-1.2-0.7-1.9c0-1.1,0.3-1.9,1-2.5c0.6-0.6,1.5-0.9,2.7-0.9c2,0,3.7,1,5.1,2.9c1.4,2,2,4.4,2,7.4c0,3.5-0.9,6.3-2.6,8.2
	c-1.7,1.9-4.1,2.9-7.2,2.9c-0.7,0-1.4-0.1-2.2-0.2c-0.8-0.1-1.6-0.3-2.5-0.6c0.1,0.6,0.2,1.2,0.2,1.8c0.1,0.6,0.1,1.4,0.1,2.1
	c0,7.1-2.9,12.7-8.7,16.9s-13.6,6.4-23.3,6.4c-8.7,0-15.5-1.9-20.4-5.8c-5-3.9-7.4-9.1-7.4-15.7c0-4.5,1.2-8.3,3.5-11.3
	C158.5,588.1,161.7,586.1,165.8,585z"/>
</svg>
